<?xml version="1.0" standalone="no"?>
<!DOCTYPE svg PUBLIC "-//W3C//DTD SVG 20010904//EN"
 "http://www.w3.org/TR/2001/REC-SVG-20010904/DTD/svg10.dtd">
<svg version="1.0" xmlns="http://www.w3.org/2000/svg"
 width="260.000000pt" height="260.000000pt" viewBox="0 0 260.000000 260.000000"
 preserveAspectRatio="xMidYMid meet">
<metadata>
Created by potrace 1.11, written by Peter Selinger 2001-2013
</metadata>
<g transform="translate(0.000000,260.000000) scale(0.100000,-0.100000)"
fill="#000000" stroke="none">
<path d="M1012 2573 c-57 -28 -62 -49 -62 -278 0 -308 -16 -295 355 -295 364
0 348 -13 348 289 0 128 -5 216 -11 233 -7 16 -26 37 -44 48 -31 19 -51 20
-293 20 -220 0 -265 -3 -293 -17z"/>
<path d="M809 1638 c-17 -3 -46 -20 -63 -37 l-31 -31 -3 -153 c-3 -169 2 -187
57 -224 28 -19 48 -23 107 -23 l74 0 0 -355 0 -355 -76 0 c-88 0 -125 -17
-149 -66 -21 -45 -21 -293 0 -334 32 -62 9 -60 580 -60 l521 0 30 31 29 30 3
151 c5 216 -10 239 -153 248 l-80 5 -1 548 c-1 532 -1 548 -21 575 -37 51 -45
52 -431 54 -199 2 -375 0 -393 -4z"/>
</g>
</svg>
